<?xml version="1.0" encoding="UTF-8"?>
<svg xmlns="http://www.w3.org/2000/svg" version="1.1" width="37" height="34" style="background: transparent;">

<path d="M0 0 C1.91635217 -0.05423638 3.83314925 -0.09289963 5.75 -0.125 C7.35101562 -0.15980469 7.35101562 -0.15980469 8.984375 -0.1953125 C11.92470106 -0.00487687 13.52361878 0.47329896 16 2 C17.04586869 17.05718891 17.04586869 17.05718891 14.79296875 21.2421875 C10.78114253 24.41782512 6.28598585 24.47627659 1.33203125 24.2734375 C0.17767578 24.13808594 0.17767578 24.13808594 -1 24 C-1.69738281 23.93039063 -2.39476562 23.86078125 -3.11328125 23.7890625 C-6.02831643 22.56993806 -6.71473688 20.82522777 -8 18 C-8.64031293 13.93934882 -8.62655043 10.06395557 -8 6 C-5.6875 3.25 -5.6875 3.25 -3 2 C-2.01 2 -1.02 2 0 2 C0 1.34 0 0.68 0 0 Z " fill="#CED51D" transform="translate(14,5)"/>
<path d="M0 0 C2.31 0 4.62 0 7 0 C7 1.32 7 2.64 7 4 C5.02 4 3.04 4 1 4 C0.16169704 6.92075397 -0.13527361 9.52664783 -0.125 12.5625 C-0.12757812 13.32691406 -0.13015625 14.09132813 -0.1328125 14.87890625 C-0.07907384 17.18998495 -0.07907384 17.18998495 1 20 C2.98 20 4.96 20 7 20 C6.67 21.32 6.34 22.64 6 24 C-2.49431818 24.16335227 -2.49431818 24.16335227 -5 23 C-8.87768289 17.66338691 -8.98449377 12.38566142 -8 6 C-5.6875 3.25 -5.6875 3.25 -3 2 C-2.01 2 -1.02 2 0 2 C0 1.34 0 0.68 0 0 Z " fill="#CCD40C" transform="translate(14,5)"/>
<path d="M0 0 C2 2 2 2 2.1953125 4.1640625 C2.17210937 4.97617188 2.14890625 5.78828125 2.125 6.625 C2.10695313 7.44226563 2.08890625 8.25953125 2.0703125 9.1015625 C2.03550781 10.04128906 2.03550781 10.04128906 2 11 C1.34 11 0.68 11 0 11 C-0.33 11.99 -0.66 12.98 -1 14 C-6.875 13.125 -6.875 13.125 -8 12 C-8.203125 10.0390625 -8.203125 10.0390625 -8.25 7.625 C-8.27578125 6.83351563 -8.3015625 6.04203125 -8.328125 5.2265625 C-7.60841404 0.34280952 -4.51599659 -0.57897392 0 0 Z " fill="#F9F9EB" transform="translate(21,10)"/>
<path d="M0 0 C1.98 0.66 3.96 1.32 6 2 C6.08071788 4.79224073 6.14035408 7.58216566 6.1875 10.375 C6.22520508 11.56609375 6.22520508 11.56609375 6.26367188 12.78125 C6.29004405 14.85586148 6.15486462 16.93100865 6 19 C5.01 19.66 4.02 20.32 3 21 C3.66 15.72 4.32 10.44 5 5 C4.34 5 3.68 5 3 5 C3 4.34 3 3.68 3 3 C2.01 2.67 1.02 2.34 0 2 C0 1.34 0 0.68 0 0 Z " fill="#D7DC5B" transform="translate(24,5)"/>
<path d="M0 0 C0 2.12540846 -0.0463351 4.2510478 -0.125 6.375 C0.02574921 10.74672697 0.6881486 13.53678113 3.625 16.8125 C4.07875 17.204375 4.5325 17.59625 5 18 C3.68 18 2.36 18 1 18 C-2.0429342 14.31428868 -2.34171541 11.36536733 -2.1875 6.6875 C-2.16042969 5.61886719 -2.13335938 4.55023438 -2.10546875 3.44921875 C-2.07066406 2.64097656 -2.03585938 1.83273437 -2 1 C-1.34 0.67 -0.68 0.34 0 0 Z " fill="#D8DD5E" transform="translate(8,10)"/>
<path d="M0 0 C-1.32 0.33 -2.64 0.66 -4 1 C-4.33 2.32 -4.66 3.64 -5 5 C-5.66 5 -6.32 5 -7 5 C-7 7.31 -7 9.62 -7 12 C-7.33 12 -7.66 12 -8 12 C-8.08131463 10.56344146 -8.13933559 9.1255517 -8.1875 7.6875 C-8.22230469 6.88699219 -8.25710938 6.08648437 -8.29296875 5.26171875 C-8 3 -8 3 -6.65625 1.21875 C-4.39462293 -0.44546615 -2.73668179 -0.22189312 0 0 Z " fill="#D6DAA0" transform="translate(21,10)"/>
<path d="M0 0 C1.98 0.66 3.96 1.32 6 2 C5.67 3.32 5.34 4.64 5 6 C4.34 5.67 3.68 5.34 3 5 C3 4.34 3 3.68 3 3 C2.01 2.67 1.02 2.34 0 2 C0 1.34 0 0.68 0 0 Z " fill="#D6DAAF" transform="translate(24,5)"/>
</svg>