<?xml version="1.0" encoding="utf-8"?>
<!-- Generator: Adobe Illustrator 19.1.0, SVG Export Plug-In . SVG Version: 6.00 Build 0)  -->
<svg version="1.1" id="Ebene_1" xmlns="http://www.w3.org/2000/svg" xmlns:xlink="http://www.w3.org/1999/xlink" x="0px" y="0px"
	 viewBox="0 0 401 26" style="enable-background:new 0 0 401 26;" xml:space="preserve">
<style type="text/css">
	.st0{clip-path:url(#SVGID_2_);fill:#CAD400;}
	.st1{clip-path:url(#SVGID_2_);fill:#93999E;}
</style>
<g>
	<defs>
		<rect id="SVGID_1_" width="401" height="26"/>
	</defs>
	<clipPath id="SVGID_2_">
		<use xlink:href="#SVGID_1_"  style="overflow:visible;"/>
	</clipPath>
	<path class="st0" d="M398.8,26c1.3,0,2.2-1,2.2-2.4c0-1.4-0.9-2.4-2.2-2.4c-1.3,0-2.2,1-2.2,2.4C396.6,25,397.5,26,398.8,26
		L398.8,26z M176.1,12.3h-8.3v2.6h5.1v7.6c-0.7,0.4-2.2,0.7-4.3,0.7c-5.9,0-9.7-3.8-9.7-10.2c0-6.3,4-10.2,10.1-10.2
		c2.5,0,4.2,0.5,5.5,1.1l0.8-2.7C174.3,0.6,172,0,169.1,0c-8.4,0-13.6,5.5-13.6,13.1c0,3.9,1.3,7.3,3.5,9.4c2.5,2.4,5.6,3.3,9.4,3.3
		c3.4,0,6.3-0.8,7.7-1.4V12.3z M134.5,11h-9.7V3h10.3V0.3h-13.6v25.3h14.1v-2.7h-10.9v-9.1h9.7V11z M80.5,25.6L84,12.4
		C85,9.1,85.6,6.7,86,4.1h0.1c0.3,2.6,0.9,5,1.6,8.3l3.2,13.2h3.4l7.1-25.3H98L94.7,13c-0.8,3.2-1.5,6-2,8.8h-0.1
		c-0.4-2.7-1-5.6-1.7-8.7l-3-12.8h-3.4L81.1,13c-0.9,3.3-1.6,6.3-2,8.8H79c-0.4-2.4-1.1-5.6-1.9-8.8l-3-12.8h-3.4l6.4,25.3H80.5z
		 M50.2,11h-9.7V3h10.3V0.3H37.2v25.3h14.1v-2.7H40.5v-9.1h9.7V11z M3.2,13.5h2.7c3.5,0,6.5,1.5,6.5,4.9c0,3.7-3.1,4.9-6.4,4.9
		c-1.2,0-2,0-2.7-0.2V13.5z M3.2,2.8c0.5-0.1,1.4-0.2,2.9-0.2c3.3,0,5.5,1.2,5.5,4.1c0,2.4-2,4.3-5.4,4.3H3.2V2.8z M0,25.5
		c1.1,0.2,2.8,0.3,5,0.3c4.1,0,6.9-0.8,8.6-2.4c1.3-1.2,2.2-2.9,2.2-5.1c0-3.8-2.8-5.7-5.2-6.3v-0.1c2.6-0.9,4.2-3.1,4.2-5.6
		c0-2-0.8-3.5-2.1-4.5c-1.5-1.3-3.6-1.8-6.8-1.8C3.7,0.1,1.4,0.3,0,0.6V25.5z"/>
	<path class="st1" d="M214.2,3c-0.9-0.2-2.1-0.3-3.8-0.3c-6.8,0-10.2,3.8-10.2,9.8c0,6.8,3.8,10.8,10.7,10.7c1.3,0,2.5,0,3.3-0.2V3z
		 M217.4,25.5c-1.7,0.2-3.6,0.3-5.9,0.3c-4.9,0-8.7-1.3-11.1-3.6c-2.3-2.3-3.6-5.7-3.6-9.8c0-4.1,1.3-7,3.6-9.1
		c2.2-2.1,5.5-3.2,10.2-3.2c2.6,0,4.9,0.2,6.9,0.5V25.5z M255.9,25.6V14.8c0-4.2,0-7.3,0.2-10.4l-0.1,0c-1.2,2.7-2.9,5.6-4.6,8.5
		l-8,12.8h-3.3V0.3h3v10.6c0,3.9-0.1,7-0.4,10.4l0.1,0c1.2-2.6,2.6-5.3,4.5-8.2l8-12.8h3.6v25.3H255.9z M300.2,0.3v14.9
		c0,7.9-3.9,10.8-9,10.8c-5.4,0-9.5-3.2-9.5-10.9V0.3h3.3v15c0,5.6,2.4,8,6.1,8c3.3,0,5.8-2.4,5.8-8v-15H300.2z M334,2.9
		c-0.6-0.2-1.6-0.3-3.2-0.3c-3.4,0-5.8,1.4-5.8,4.7c0,2.9,2.2,4.8,5.7,4.8h3.3V2.9z M337.2,25.6H334v-11H331
		c-2.9,0.1-4.3,1.4-5.1,4.9c-0.7,3.2-1.2,5.3-1.6,6h-3.3c0.5-1,1.1-3.4,1.9-7c0.6-2.6,1.8-4.4,3.7-5.1v-0.1
		c-2.6-0.9-4.7-3.1-4.7-6.4c0-2,0.7-3.7,2-4.8c1.6-1.4,3.8-2.1,7.3-2.1c2.2,0,4.6,0.2,6.2,0.6V25.6z M359.3,12.3h8.3v2.6h-5.1v7.6
		c0.7,0.4,2.2,0.7,4.3,0.7c5.9,0,9.7-3.8,9.7-10.2c0-6.3-4-10.2-10.1-10.2c-2.5,0-4.2,0.5-5.5,1.1L360,1.2c1.1-0.5,3.4-1.2,6.3-1.2
		c8.4,0,13.6,5.5,13.6,13.1c0,3.9-1.3,7.3-3.5,9.4c-2.5,2.4-5.6,3.3-9.4,3.3c-3.4,0-6.3-0.8-7.7-1.4V12.3z"/>
</g>
</svg>
