<?xml version="1.0" encoding="utf-8"?>
<!-- Generator: Adobe Illustrator 19.1.0, SVG Export Plug-In . SVG Version: 6.00 Build 0)  -->
<svg version="1.1" id="Ebene_1" xmlns="http://www.w3.org/2000/svg" xmlns:xlink="http://www.w3.org/1999/xlink" x="0px" y="0px"
	 viewBox="0 0 600 600" style="enable-background:new 0 0 600 600;" xml:space="preserve">
<style type="text/css">
	.st0{opacity:0.1;}
	.st1{fill:#93999E;}
	.st2{fill:#CAD400;}
</style>
<g class="st0">
	<path class="st1" d="M149.2,74.8C183,46.3,248.1,0,359.3,0c31.3,0,139.3,1.6,201.1,91.9C590.1,135,600,184.6,600,236.6
		c0,104.1-44.5,182.1-64.3,213C502.7,499.2,422,600,258,600c-22.2,0-85.7-0.8-143.4-37.4C76.6,538.2,22.3,485.4,18.1,378
		C13.2,266.7,62.6,148,149.2,74.8z M193.7,442.3c4.9,8.1,12.4,14.6,20.6,21.1c23.1,17.9,48.6,18.7,58.5,17.9
		c30.5,0,71.7-9.8,111.3-63.4c17.3-22.8,60.2-93.5,60.2-181.3c0-8.9,0.8-49.6-19.8-79.7c-4.1-5.7-12.4-16.3-26.4-25.2
		c-9.1-4.9-26.4-13.8-52.7-13.8c-37.1,0-61.8,17.1-72.5,24.4c-62.6,46.3-100.6,148-99.7,222.8C173.9,390.2,178.8,420.3,193.7,442.3z
		"/>
</g>
<g class="st0">
	<path class="st2" d="M65.9,97.6C122.8,30.9,208.5,0,295.1,0c42,0,167.3,8.1,243.1,118.7c37.1,54.5,51.1,116.3,51.1,181.3
		c0,34.2-1.6,123.6-65.9,200.8C445.9,593.5,333,600,294.2,600c-42.8,0-168.1-8.1-244-119.5C13.2,426.8,0,364.2,0,300
		C0,265.9,1.6,174.8,65.9,97.6z M192.9,430.9c13.2,19.5,42,51.2,102.2,51.2c136,0,133.5-167.5,133.5-182.1
		c0-65-18.1-149.6-88.2-174.8c-9.1-3.3-23.9-7.3-47-7.3c-42.9,0-65.9,15.4-79.1,27.6C159.1,194.3,159.9,287,159.9,300
		C159.9,312.2,160.7,382.9,192.9,430.9z"/>
</g>
</svg>
